<?xml version="1.0" standalone="no"?>
<!DOCTYPE svg PUBLIC "-//W3C//DTD SVG 20010904//EN"
 "http://www.w3.org/TR/2001/REC-SVG-20010904/DTD/svg10.dtd">
<svg version="1.0" xmlns="http://www.w3.org/2000/svg"
 width="100.000000pt" height="100.000000pt" viewBox="0 0 100.000000 100.000000"
 preserveAspectRatio="xMidYMid meet">

<g transform="translate(0.000000,100.000000) scale(0.100000,-0.100000)"
fill="#000000" stroke="none">
<path d="M0 500 l0 -500 500 0 500 0 0 500 0 500 -500 0 -500 0 0 -500z m621
380 c163 -51 279 -211 279 -385 l0 -65 -69 0 -69 0 -6 34 c-8 44 -21 54 -98
74 -41 11 -63 22 -63 32 0 21 53 26 61 6 9 -22 94 -23 94 -1 0 26 -45 63 -85
71 -94 17 -165 -20 -165 -86 0 -47 21 -67 97 -89 37 -11 59 -23 61 -34 5 -26
-64 -24 -78 3 -8 15 -21 20 -51 20 -40 0 -41 -1 -34 -27 13 -56 37 -68 131
-68 82 0 87 1 110 28 l24 28 0 -30 c0 -31 0 -31 56 -31 53 0 55 -1 48 -22 -3
-13 -16 -36 -27 -53 -79 -117 -204 -185 -338 -185 -61 0 -180 32 -197 53 -9
11 -23 391 -14 382 2 -1 13 -40 26 -86 l22 -84 37 -3 c35 -3 36 -2 47 40 24
93 39 133 39 111 1 -13 6 -23 12 -23 6 0 7 8 2 23 -12 33 -6 86 12 113 l16 25
-38 -3 -37 -3 -22 -75 c-13 -41 -23 -77 -24 -80 -1 -3 -11 31 -23 75 l-22 80
-62 3 -63 3 0 -206 c0 -113 -4 -205 -9 -205 -15 0 -60 77 -81 139 -102 303
193 597 501 501z"/>
<path d="M238 683 c17 -2 47 -2 65 0 17 2 3 4 -33 4 -36 0 -50 -2 -32 -4z"/>
<path d="M461 393 c-1 -27 3 -33 21 -33 19 0 20 2 6 18 -9 9 -18 24 -21 32 -3
8 -6 0 -6 -17z"/>
<path d="M507 323 c-12 -11 -8 -30 7 -30 7 0 13 6 12 13 -3 18 -11 25 -19 17z"/>
<path d="M430 307 c0 -7 9 -13 20 -13 11 0 20 6 20 13 0 7 -9 13 -20 13 -11 0
-20 -6 -20 -13z"/>
<path d="M540 305 c0 -6 7 -12 15 -12 8 0 15 6 15 12 0 6 -7 12 -15 12 -8 0
-15 -6 -15 -12z"/>
</g>
</svg>
